<svg width="13" height="13" viewBox="0 0 581 581" fill="none" xmlns="http://www.w3.org/2000/svg">
<path d="M416.641 364.747C416.497 381.041 414.336 397.317 410.198 413.198C401.729 445.73 384.897 476.533 359.691 502.209L359.72 502.237L499.237 362.721L499.208 362.692C499.698 362.25 500.178 361.77 500.639 361.309C539.037 322.911 558.491 272.731 558.99 222.398C559.23 199.046 555.399 175.646 547.468 153.388C540.89 134.924 531.528 117.227 519.334 100.99L378.425 241.899L376.994 243.33C389.189 259.567 398.56 277.244 405.128 295.728C413.05 317.995 416.9 341.376 416.641 364.747Z" stroke="#AFB1B3" stroke-width="24" stroke-miterlimit="10"/>
<path d="M77.8638 220.381C103.539 195.176 134.343 178.344 166.874 169.875C182.727 165.736 199.002 163.576 215.297 163.432C238.649 163.163 262.058 167.013 284.325 174.935C302.78 181.503 320.486 190.874 336.723 203.069L338.154 201.638L479.072 60.7194C462.826 48.5345 445.13 39.1534 426.675 32.5856C404.398 24.6736 381.008 20.8136 357.646 21.0825C307.322 21.5818 257.152 41.045 218.763 79.4337L217.352 80.8451L77.835 220.362L77.8638 220.381Z" stroke="#AFB1B3" stroke-width="24" stroke-miterlimit="10"/>
<path d="M200.068 339.724C200.068 339.724 178.502 305.781 171.934 287.326C164.003 265.059 160.162 241.659 160.431 218.297C160.575 202.003 162.736 185.728 166.874 169.875C134.343 178.344 103.539 195.176 77.8637 220.381C77.374 220.823 76.8939 221.303 76.433 221.764C37.5163 260.681 18.0435 311.696 18.0531 362.702L18.0435 445.25V562H134.794H217.361C268.357 562 319.382 542.537 358.299 503.62C358.76 503.159 359.24 502.679 359.682 502.189C384.887 476.514 401.719 445.711 410.188 413.179C394.306 417.318 378.031 419.478 361.736 419.622C338.365 419.881 314.984 416.031 292.727 408.1C274.253 401.532 256.566 392.16 240.329 379.966L171.675 448.62C176.745 467.613 171.848 488.718 156.946 503.62C134.707 525.858 98.652 525.858 76.4138 503.62C54.1757 481.382 54.1757 445.326 76.4138 423.088C91.3161 408.186 112.421 403.289 131.414 408.359L200.068 339.724Z" stroke="#AFB1B3" stroke-width="24" stroke-miterlimit="10"/>
</svg>
